<?xml version="1.0" encoding="utf-8"?>
<!-- Generator: Adobe Illustrator 24.0.1, SVG Export Plug-In . SVG Version: 6.00 Build 0)  -->
<svg version="1.1" id="Layer_1" xmlns="http://www.w3.org/2000/svg" xmlns:xlink="http://www.w3.org/1999/xlink" x="0px" y="0px"
	 viewBox="0 0 350.4 128.3" style="enable-background:new 0 0 350.4 128.3;" xml:space="preserve">
<style type="text/css">
	.st0{fill-rule:evenodd;clip-rule:evenodd;fill:#EB6021;}
</style>
<g>
	<path class="st0" d="M21.1,48.3c1.1,0.4,2.2,0.8,3.1,1.2c1,0.4,2,0.7,3.2,1.1l0.9,0.3l0,0l5.3,1.8h0l0.2,0.1
		c0.8,0.3,1.6,0.6,2.2,0.8c0.7,0.3,1.4,0.6,2.1,0.9c0.7,0.3,1.3,0.6,1.9,0.9c0.6,0.3,1.1,0.6,1.6,0.9l0.5,0.3v0
		c1.5,1.1,2.6,2.3,3.2,3.6c0.9,1.8,1,3.6,0.4,5.4c-0.5,1.7-1.6,3.3-3,4.7c-1.8,1.7-4.3,3-6.9,3.6c-1,0.2-2.1,0.4-3.4,0.5
		c-1.2,0.1-2.5,0.2-3.9,0.2c-1.3,0-2.6-0.1-3.9-0.2c-1.3-0.1-2.5-0.3-3.8-0.5c-1.3-0.2-2.5-0.5-3.7-0.9c-1.2-0.3-2.4-0.7-3.5-1.2
		l-1-0.4l0,0c-0.8-0.3-1.5-0.6-2.2-1c-1-0.5-2-1-3-1.5c-0.6-0.3-1.2-0.7-1.8-1.1c-0.4-0.2-0.7-0.5-1.1-0.7c-1.5,1.3-2.8,3.2-3.5,5.4
		c-0.8,2.2-1.1,4.4-0.5,6.3c0.1,0.4,0.3,0.8,0.5,1.2c0.2,0.4,0.5,0.8,0.8,1.2h0c0.3,0.4,0.7,0.8,1,1.2c0.4,0.4,0.8,0.8,1.2,1.1
		c0.5,0.4,1,0.7,1.5,1.1c0.5,0.3,1,0.6,1.6,0.9h0l0.2,0.1c0.7,0.3,1.4,0.6,2.1,0.9h0c0.7,0.3,1.5,0.6,2.2,0.8
		c0.8,0.2,1.6,0.5,2.5,0.7c0.9,0.2,1.8,0.4,2.7,0.6c0.9,0.2,1.9,0.3,2.9,0.5c0.9,0.1,2,0.2,3,0.3c1.1,0.1,2.1,0.2,3.1,0.2
		c1,0,2.1,0.1,3.3,0.1c3.2,0,6.1-0.2,8.8-0.5c2.7-0.3,5.3-0.8,7.6-1.4c2.2-0.6,4.3-1.3,6.2-2.2c1.9-0.9,3.5-1.9,5-3.1
		c1.5-1.1,2.7-2.4,3.8-3.7h0c1.1-1.3,2-2.7,2.7-4.2c0.7-1.5,1.3-3,1.6-4.7c0.4-1.7,0.5-3.4,0.5-5.3c0-1.8-0.1-3.5-0.4-5.1
		c-0.3-1.6-0.7-3-1.2-4.4c-0.5-1.3-1.2-2.6-2-3.7c-0.8-1.1-1.7-2.2-2.8-3.2C51.1,40.9,40.4,38,30.4,34.8c-0.8-0.2-1.4-0.5-2.1-0.7
		c-0.6-0.2-1.3-0.5-1.8-0.8c-0.9-0.4-1.7-0.8-2.5-1.4c-1.6-1.1-3.1-2.5-3.8-4.1c-0.8-1.7-1-3.7,0-5.8c0.2-0.5,0.5-0.9,0.8-1.4
		c0.4-0.7,1-1.3,1.6-1.8c0.6-0.5,1.2-1,2-1.5l0,0l0.1-0.1c0.7-0.4,1.6-0.8,2.5-1.1c0.9-0.3,1.9-0.6,2.9-0.8c1-0.2,2-0.3,3.1-0.4
		c1.1-0.1,2.3-0.1,3.5-0.1c2.3,0,4.6,0.1,7,0.4c1.1,0.1,2.3,0.3,3.3,0.6c1.1,0.2,2.2,0.5,3.2,0.8c1,0.3,2,0.6,2.9,0.9
		c0.9,0.3,1.8,0.6,2.6,1c0.6,0.2,1.1,0.4,1.5,0.7c0.2,0.1,0.4,0.3,0.5,0.4c0.1-0.2,0.2-0.4,0.4-0.6c0.9-1.6,1.8-3.2,2.2-4.9
		c0.4-1.6,0.5-3.3-0.1-5c-0.1-0.4-0.3-0.7-0.5-1.1c-0.2-0.3-0.4-0.7-0.6-1c-0.3-0.4-0.6-0.7-0.9-1c-0.3-0.3-0.7-0.7-1.1-1
		c-0.4-0.3-0.9-0.6-1.3-0.9c-0.5-0.3-1-0.6-1.5-0.8c-0.6-0.3-1.2-0.5-1.8-0.8c-0.6-0.2-1.3-0.5-2-0.7c-0.7-0.2-1.5-0.4-2.3-0.6
		c-0.8-0.2-1.6-0.3-2.5-0.5c-0.8-0.1-1.7-0.3-2.7-0.4C42,0.4,41,0.3,40.1,0.2c-1-0.1-2-0.1-2.9-0.2C36.2,0,35.1,0,34,0
		c-2.8,0-5.5,0.1-8,0.4c-2.5,0.3-4.8,0.7-6.9,1.3c-2.1,0.6-4,1.3-5.8,2.2c-1.6,0.8-3.1,1.7-4.4,2.7v0L8.5,6.9
		C7,8.1,5.8,9.3,4.7,10.5c-1.1,1.3-1.9,2.6-2.6,4.1c-0.7,1.4-1.2,3-1.6,4.6C0.2,20.9,0,22.7,0,24.6c0,1,0,2,0.1,2.9
		c0.1,0.9,0.2,1.8,0.4,2.6c0.2,0.8,0.3,1.5,0.6,2.2c0.2,0.7,0.5,1.4,0.8,2l0.1,0.2v0c0.3,0.6,0.6,1.1,0.9,1.7
		c0.4,0.6,0.8,1.2,1.2,1.7c0.4,0.6,0.9,1.1,1.4,1.6c0.5,0.5,1,1,1.6,1.5c0.6,0.5,1.2,1,1.8,1.4c0.6,0.4,1.3,0.9,2,1.3
		c0.7,0.4,1.5,0.9,2.2,1.2c0.7,0.4,1.5,0.8,2.4,1.1c0.9,0.4,1.8,0.8,2.8,1.1C19.1,47.5,20.1,47.9,21.1,48.3z"/>
	<path class="st0" d="M322.4,46.7c0.1,4.5,0.2,9,0.3,13.5l0,0.2c0.1,4.8,0.2,10.2,0.3,14.9c4-2,6.9-3.5,10.5-6.1
		c0.5-0.3,1-0.7,1.5-1.2c2.5-2,6.1-4.7,6.3-8l0.7,0.2c1.6,0.3,3.2,1.1,4.7,2.4c1.2,1,2.3,2.4,3,3.8c3,6.2-2.7,10.3-7.3,13.5
		c-5.8,4.1-12.6,7.1-19.4,10.9c0,2.2-0.1,4.3-0.2,6.3c-0.1,2.1-0.2,4-0.3,5.8c-0.1,1.8-0.3,3.5-0.5,5c-0.2,1.5-0.4,2.8-0.7,3.8
		L321,112c-0.7,2.3-1.6,4.4-2.6,6.1c-1.1,1.9-2.3,3.5-3.7,4.8c-1.4,1.4-3,2.5-4.6,3.4c-1.7,0.9-3.6,1.5-5.4,1.7
		c-1,0.2-2,0.2-2.9,0.2c-1,0-2-0.1-2.9-0.3c-1-0.2-1.9-0.4-2.9-0.8c-0.9-0.3-1.8-0.7-2.7-1.2c-0.9-0.5-1.7-1-2.5-1.6
		c-0.8-0.6-1.5-1.3-2.2-2c-0.7-0.7-1.3-1.5-1.8-2.3c-0.5-0.8-1-1.7-1.4-2.6c-0.7-1.6-1.2-3.4-1.4-5.2c-1.5-14.9,14-22.5,24.7-28.7
		l0-3.3c-9.4,8.1-20.1,12.1-29.4,2.2c-0.5-0.6-1-1.2-1.5-1.8c-0.1-0.1-0.2-0.3-0.3-0.4c-0.1-0.1-0.2-0.3-0.3-0.5l-0.2-0.3
		c-0.5,0.5-1.1,0.9-1.6,1.3c-0.6,0.5-1.2,1-1.7,1.4c-0.5,0.4-1,0.8-1.4,1.1c-0.4,0.3-0.8,0.6-1.1,0.8c-0.3,0.2-0.6,0.4-0.9,0.6
		c-0.3,0.2-0.6,0.4-0.9,0.5c-0.3,0.2-0.6,0.3-0.9,0.5c-0.3,0.2-0.6,0.3-0.9,0.5c-1,0.5-2.1,0.9-3.1,1.3c-1,0.3-2,0.6-3,0.8
		c-1,0.2-2,0.3-2.9,0.2c-1,0-1.9-0.1-2.9-0.3c-1-0.2-2-0.5-2.9-0.9c-0.9-0.4-1.8-0.9-2.7-1.5c-0.8-0.6-1.6-1.3-2.4-2
		c-0.7-0.8-1.4-1.6-2-2.6c-0.1-0.2-0.2-0.4-0.4-0.6c-0.1-0.2-0.2-0.4-0.3-0.6c-0.1-0.2-0.2-0.4-0.3-0.6c-0.1-0.2-0.2-0.4-0.3-0.6
		c-0.3-0.7-0.6-1.4-0.9-2.1c-0.2-0.7-0.4-1.5-0.6-2.2c-0.1-0.8-0.3-1.5-0.3-2.3c-0.1-0.8-0.1-1.6-0.1-2.5c0-2.2,0.1-4.3,0.2-6.5l0,0
		c0.1-2.6,0.3-5.2,0.1-7.7c-0.5-8.1-4.1-8.1-9.6-2.9c-4.9,4.7-9.6,12.5-12.8,17.6c0,2.1-0.6,14.1,0.7,15.4l0.5,0.6l-0.7,0.4
		c-0.6,0.4-1.2,0.7-1.9,0.9c-0.6,0.2-1.2,0.4-1.9,0.6c-0.6,0.1-1.3,0.2-2,0.2c-0.7,0-1.4,0-2.1,0c-0.8-0.1-1.6-0.2-2.3-0.5
		c-0.7-0.3-1.4-0.6-2-1c-0.6-0.4-1.1-0.9-1.5-1.5c-0.3-0.5-0.6-0.9-0.8-1.5c-0.3,0.2-0.6,0.4-0.8,0.6c-0.4,0.2-0.7,0.5-1.1,0.7
		c-0.4,0.2-0.7,0.4-1.1,0.6c-0.4,0.2-0.7,0.4-1.1,0.6c-1,0.5-2,0.9-3,1.3c-1,0.3-2,0.6-3,0.8c-1,0.2-1.9,0.3-2.9,0.3
		c-1,0-1.9-0.1-2.8-0.2c-1-0.2-2-0.5-2.9-0.8c-0.9-0.4-1.8-0.8-2.6-1.4c-5.9-3.9-7.9-10.5-7.9-17.3c0-1.3,0-2.5,0.1-3.9
		c0-0.7,0.1-1.4,0.1-2.1l0-0.1c0.1-1.8,0.2-3.5,0.1-5.3c-0.1-1.6-0.3-3-0.5-4.2c-0.3-1.2-0.7-2.1-1.2-2.7c-0.2-0.2-0.4-0.5-0.6-0.6
		c-0.2-0.2-0.4-0.3-0.6-0.4c-5.4-2.7-14.9,13.2-16.6,16c-1.1,1.8-2.1,3.4-2.9,4.9v0.2c0,3.5-0.9,13.5,1.2,15.7l-0.7,0.4
		c-0.6,0.4-1.2,0.7-1.9,0.9c-0.6,0.2-1.2,0.4-1.9,0.6c-0.6,0.1-1.3,0.2-2,0.2c-0.7,0-1.4,0-2.1,0c-0.8-0.1-1.6-0.2-2.3-0.5
		c-0.7-0.3-1.4-0.6-2-1c-0.6-0.4-1.1-0.9-1.5-1.5c-0.4-0.6-0.7-1.2-0.9-1.9l-0.1-0.2l-0.1,0.1c-0.2,0.1-0.3,0.3-0.5,0.4
		c-0.2,0.1-0.3,0.2-0.4,0.3c-0.5,0.3-1,0.7-1.5,1c-0.5,0.3-1,0.6-1.5,0.9c-0.5,0.3-1,0.5-1.6,0.8c-0.5,0.2-1.1,0.4-1.6,0.6
		c-0.6,0.2-1.1,0.4-1.7,0.5c-0.6,0.1-1.1,0.3-1.7,0.4c-0.6,0.1-1.1,0.2-1.7,0.2c-0.6,0-1.1,0.1-1.7,0.1c-1.3,0-2.6-0.2-3.8-0.4
		c-1.2-0.3-2.4-0.6-3.6-1.1c-1.2-0.5-2.3-1.1-3.3-1.7c-1-0.7-2-1.5-2.9-2.3c-0.3-0.3-0.6-0.6-0.9-0.9c-0.3-0.3-0.5-0.6-0.8-1
		c-0.2-0.3-0.4-0.6-0.6-0.9c-0.1-0.2-0.2-0.3-0.3-0.5l-0.2,0.2c-1.3,1.2-2.6,2.4-4,3.4c-1.4,1-2.8,1.9-4.2,2.6
		c-1.4,0.7-2.9,1.3-4.3,1.7c-1.4,0.4-2.9,0.7-4.3,0.8c-0.8,0.1-1.6,0.1-2.3,0c-0.8,0-1.5-0.1-2.3-0.3c-0.7-0.1-1.5-0.3-2.2-0.6
		c-0.7-0.2-1.4-0.5-2.1-0.9c-0.7-0.3-1.3-0.7-1.9-1.1c-0.6-0.4-1.2-0.9-1.8-1.3c-0.6-0.5-1.1-1-1.7-1.6c-0.5-0.6-1-1.2-1.5-1.8
		c-0.5-0.7-1-1.4-1.4-2.2c-0.4-0.8-0.8-1.6-1.1-2.4c-0.3-0.9-0.6-1.8-0.8-2.7c-0.2-0.9-0.4-1.9-0.6-2.9c-0.1-0.8-0.3-1.7-0.3-2.6
		c-0.1-0.9-0.2-1.8-0.2-2.8c-0.1-1-0.1-1.9-0.1-3c0-1,0-2.1,0-3.2l-0.1-13h0c0-2.4,0.6-5.4-1.2-7.3l0.7-0.4c0.6-0.4,1.2-0.7,1.8-0.9
		c0.6-0.2,1.2-0.4,1.9-0.6c0.6-0.1,1.3-0.2,2-0.2c0.7,0,1.4,0,2.1,0c0.8,0.1,1.5,0.2,2.2,0.4c0.7,0.2,1.3,0.5,1.9,0.9
		c0.6,0.4,1.1,0.9,1.5,1.4c0.4,0.5,0.7,1.1,1,1.8c0.2,0.6,0.3,1.1,0.4,1.6c0,0.5,0,0.9,0,1.5l0,0.5l0.1,14.3c0,3.5,0.3,6.4,0.9,8.6
		c0.6,2.4,1.4,4.1,2.5,5.2c0.5,0.5,1.1,0.9,1.7,1.2c0.6,0.3,1.3,0.4,1.9,0.4c0.7,0,1.4-0.2,2.1-0.4c0.7-0.3,1.5-0.7,2.2-1.2
		c2-1.4,4-3.5,5.7-6.1c1.6-2.5,2.9-5.3,3.6-8.3l0-15.9c0-1.9,0.1-2.3-1.2-3.6l0.7-0.4c0.6-0.4,1.2-0.7,1.9-0.9
		c0.6-0.2,1.2-0.4,1.9-0.6c0.6-0.1,1.3-0.2,2-0.2c0.7,0,1.4,0,2.1,0c0.8,0.1,1.6,0.2,2.3,0.5c0.7,0.3,1.4,0.6,2,1
		c0.6,0.4,1.1,0.9,1.5,1.5c0.4,0.6,0.7,1.2,0.9,1.9c0.3,0.9,0.3,1.4,0.3,2.2l0,21.5c0,2,0.2,3.7,0.6,5c0.4,1.4,0.9,2.4,1.6,3.2
		c0.4,0.5,0.9,0.8,1.4,1c0.6,0.2,1.2,0.4,1.8,0.4c0.6,0,1.3-0.1,2-0.3c0.7-0.2,1.5-0.5,2.2-0.9c1.9-1,3.8-2.6,5.4-4.5
		c1.6-1.8,2.9-3.9,3.7-6c0-1.2,0-2.4,0-3.6c0-1.2,0-2.5,0-3.7l0,0c0-4.7,0-9.5-0.2-14.1c-0.1-1.6-0.2-1.9-1.2-3l0.7-0.4
		c0.6-0.4,1.2-0.7,1.8-0.9c0.6-0.2,1.2-0.4,1.9-0.6c0.6-0.1,1.3-0.2,2-0.2c0.7,0,1.4,0,2.1,0c0.9,0.1,1.8,0.3,2.6,0.6
		c0.8,0.3,1.5,0.7,2.1,1.3c1,0.9,1.6,1.8,1.9,2.7c0.3,0.9,0.3,1.9,0.3,3c0,1.5,0,3.1,0,4.6c1.8-2.3,3.6-4.6,5.7-6.6
		c2.1-2.1,4.6-3.8,7.6-5c0.8-0.3,1.7-0.6,2.5-0.8c0.9-0.2,1.7-0.4,2.6-0.5c0.9-0.1,1.7-0.1,2.6-0.1c0.9,0,1.7,0.1,2.5,0.2
		c0.9,0.1,1.7,0.4,2.5,0.6c0.8,0.3,1.6,0.6,2.3,1c0.7,0.4,1.5,0.8,2.1,1.3c0.7,0.5,1.3,1.1,1.9,1.6c0.3,0.3,0.6,0.7,0.9,1.1
		c0.3,0.4,0.5,0.7,0.8,1.1c0.3,0.4,0.5,0.8,0.7,1.2c0.2,0.4,0.4,0.8,0.6,1.3c0.2,0.6,0.4,1.2,0.6,1.8c0.2,0.6,0.4,1.2,0.5,1.9
		c0.1,0.6,0.3,1.3,0.4,1.9c0.1,0.7,0.2,1.3,0.2,2c0.1,1.3,0.1,2.6,0.1,3.9c0,1.3-0.1,2.7-0.2,4l0,0.1c0,0.7-0.1,1.4-0.1,2
		c-0.1,2.4-0.1,4.4,0.1,6c0.2,1.7,0.5,3,1,3.9c0.3,0.5,0.6,0.9,0.9,1.2c0.3,0.3,0.7,0.5,1.1,0.5c0.4,0.1,0.9,0,1.3-0.1
		c0.5-0.1,1.1-0.4,1.6-0.7c1.3-0.7,2.6-1.9,4-3.3c1.5-1.5,3-3.4,4.3-5.3L205.9,46h0l0-1.3l0-0.5l0-0.5c0-0.8,0-1.7,0-2.5
		c-0.1-0.8-0.3-1.4-0.6-1.8l-0.5-0.6l0.7-0.4c0.6-0.4,1.2-0.7,1.8-0.9c0.6-0.2,1.2-0.4,1.9-0.6c0.6-0.1,1.3-0.2,2-0.2
		c0.7,0,1.4,0,2.1,0c0.9,0.1,1.8,0.3,2.6,0.6c0.8,0.3,1.5,0.7,2.1,1.3c2.6,2.2,2.4,5.5,2.3,8.6c0,0.5,0,1,0,1.5l0,0.8l1.4-1.7
		l1.3-1.6l1.5-1.7c0.8-0.9,1.5-1.7,2.3-2.5c0.8-0.8,1.6-1.5,2.5-2.1c0.9-0.7,1.8-1.2,2.6-1.7c0.9-0.5,1.8-1,2.8-1.3
		c0.7-0.3,1.4-0.5,2.2-0.7c0.7-0.2,1.5-0.3,2.2-0.5c0.7-0.1,1.5-0.2,2.2-0.2c0.7,0,1.4,0,2.1,0.1c0.8,0.1,1.5,0.2,2.2,0.4
		c0.7,0.2,1.4,0.4,2.1,0.7c0.7,0.3,1.3,0.6,2,1c0.6,0.4,1.2,0.8,1.8,1.3c0.4,0.4,0.9,0.8,1.3,1.2c0.4,0.4,0.8,0.9,1.1,1.3
		c0.3,0.5,0.6,1,0.9,1.5c0.3,0.5,0.5,1,0.7,1.6c0.2,0.6,0.4,1.2,0.6,1.8c0.2,0.6,0.3,1.3,0.5,1.9c0.1,0.7,0.3,1.3,0.4,2
		c0.1,0.7,0.2,1.4,0.3,2.2c0.1,0.7,0.1,1.3,0.1,1.9c0,0.6,0,1.2,0,1.7c0,0.6,0,1.2-0.1,1.8c0,0.7-0.1,1.4-0.1,2.1l0,0.2
		c-0.1,1.1-0.1,1.9-0.1,2.6l0,0.3c-1,19.1,8.5,11.2,16.3,0.9l0-1.1l0-1.2l0-1.3l0-1.3L273,46h0c0-0.6,0-1.2,0-1.7c0-0.3,0-0.6,0-1
		l0,0c0-1.5,0.1-3.2-0.7-4l-0.5-0.6l0.7-0.4c0.6-0.4,1.2-0.7,1.8-0.9c0.6-0.2,1.2-0.4,1.9-0.6c0.6-0.1,1.3-0.2,2-0.2
		c0.7,0,1.4,0,2.1,0c1,0.1,1.9,0.3,2.8,0.6c0.8,0.4,1.6,0.9,2.2,1.5c0.6,0.6,1.1,1.3,1.4,2.1c0.3,0.8,0.5,1.6,0.5,2.6l0,0.9
		l0.1,14.6c0,0.9,0,1.8,0,2.6c0,0.8,0.1,1.7,0.1,2.5c0,0.8,0.1,1.5,0.2,2.2c0.1,0.7,0.2,1.4,0.3,2c0.1,0.8,0.3,1.5,0.5,2.2
		c0.2,0.6,0.5,1.2,0.8,1.7c0.3,0.6,0.7,1,1.2,1.3c0.4,0.3,0.9,0.5,1.4,0.6c0.5,0.1,1.1,0.1,1.6,0c0.6-0.1,1.3-0.3,1.9-0.6
		c0.8-0.4,1.7-0.9,2.6-1.5c0.9-0.6,1.8-1.4,2.7-2.3c1.1-1.1,2.3-2.4,3.4-3.8c1-1.2,1.8-2.5,2.6-3.9c0.6-1.2,1.2-2.4,1.5-3.6
		c0.3-1.1,0.5-2.1,0.5-3.1c0-0.6,0-1.4,0-2.1c0-0.8,0-1.6,0-2.4c0-1.8,0.1-3.8,0-5.6c0-1.8-0.1-3.5-0.3-4.8c0-0.1,0-0.3-0.1-0.4
		c0-0.1-0.1-0.2-0.1-0.3c0-0.1-0.1-0.2-0.2-0.3c-0.1-0.1-0.1-0.2-0.2-0.3l-0.5-0.6l0.7-0.4c0.6-0.4,1.2-0.7,1.8-0.9
		c0.6-0.2,1.2-0.4,1.9-0.6c0.6-0.1,1.3-0.2,2-0.2c0.7,0,1.4,0,2.1,0c0.9,0.1,1.8,0.3,2.6,0.6C322.9,39.1,322.3,42.6,322.4,46.7
		L322.4,46.7z M307.4,107.9c0.1-0.5,0.2-1.1,0.3-1.8c0.1-0.7,0.2-1.5,0.3-2.3c0.1-0.8,0.1-1.6,0.2-2.5c0-0.7,0.1-1.3,0.1-2
		c-0.6,0.4-1.1,0.8-1.7,1.2c-0.7,0.6-1.5,1.1-2.2,1.7c-0.8,0.6-1.5,1.3-2.2,2c-0.7,0.7-1.3,1.3-1.9,2c-0.5,0.6-0.9,1.1-1.2,1.6
		c-0.3,0.5-0.6,1-0.7,1.5c-0.2,0.5-0.2,0.9-0.2,1.3c0,0.4,0.1,0.8,0.2,1.1c0.1,0.2,0.2,0.3,0.3,0.5c0.1,0.2,0.2,0.3,0.4,0.5
		c0.1,0.1,0.3,0.3,0.5,0.4c0.2,0.1,0.3,0.2,0.5,0.3c0.2,0.1,0.4,0.2,0.6,0.3c0.2,0.1,0.4,0.1,0.6,0.2c0.2,0,0.4,0.1,0.6,0.1
		c0.2,0,0.4,0,0.6,0c0.5-0.1,0.9-0.3,1.4-0.6c0.5-0.3,0.9-0.7,1.3-1.2c0.4-0.5,0.8-1.1,1.2-1.9C306.8,109.7,307.2,108.8,307.4,107.9
		z"/>
</g>
</svg>
